<?xml version="1.0" encoding="utf-8"?>
<!-- Generator: Adobe Illustrator 26.5.0, SVG Export Plug-In . SVG Version: 6.00 Build 0)  -->
<svg version="1.1" id="Layer_1" xmlns="http://www.w3.org/2000/svg" xmlns:xlink="http://www.w3.org/1999/xlink" x="0px" y="0px"
	 viewBox="0 0 1710 679" style="enable-background:new 0 0 1710 679;" xml:space="preserve">
<style type="text/css">
	.st0{fill:#143D8D;}
	.st1{fill:#7079B2;}
	.st2{fill:#FFFFFF;}
	.st3{fill:#49A942;}
</style>
<g>
	<g>
		<path class="st0" d="M211.01,418.73l-10.24,43.63h-65.62c-28.32,0-47.92,19.53-58.79,58.64H187.5l-10.24,43.61H66.11
			c-2.54,11.16-3.8,20.72-3.8,28.62c0,21.87,11.63,32.79,34.9,32.79h66.01l-10.24,43.63H85.46c-45.02,0-67.52-23.72-67.52-71.2
			c0-14.41,2.14-30.93,6.44-49.55c9.6-41.41,23.13-72.71,40.6-93.87c20.23-24.2,46.77-36.3,79.65-36.3L211.01,418.73L211.01,418.73z
			"/>
		<path class="st0" d="M248.57,669.66h-36.8l42.48-183.92h69.42c31.35,0,47.04,12.8,47.04,38.37c0,8.16-1.27,17.81-3.8,28.98
			l-26.93,116.56h-37.56l25.42-110.27c2.27-9.31,3.43-15.94,3.43-19.91c0-8.6-6.71-12.91-20.11-12.91h-29.59L248.57,669.66z"/>
		<path class="st0" d="M501.59,631.62l-8.73,38.04H439c-36.17,0-54.25-18.6-54.25-55.84c0-10.7,1.51-22.79,4.54-36.29
			c6.32-26.52,16.31-47.7,29.96-63.52c16.45-18.86,37.19-28.27,62.22-28.27h53.87l-9.11,38.04h-48.56
			c-12.14,0-20.99,1.98-26.55,5.94c-6.82,4.88-12.26,14.55-16.31,28.96h83.46l-8.72,38.75h-83.46c-1.27,6.97-1.9,12.45-1.9,16.4
			c0,6.75,2.02,11.4,6.07,13.96c4.04,2.56,11.38,3.85,22.01,3.85h49.32V631.62z"/>
		<path class="st0" d="M569.86,669.66h-36.8l42.49-183.92h62.22c11.38,0,19.35,1.68,23.89,5.05c4.54,3.37,6.83,9.38,6.83,17.98
			c0,7.92-2.41,22.11-7.21,42.58l-2.66,11.16h-34.9l3.41-14.65c2.02-9.53,3.04-15.58,3.04-18.14c0-4.19-1.58-6.68-4.73-7.5
			c-3.17-0.81-10.31-1.22-21.43-1.22L569.86,669.66z"/>
		<path class="st0" d="M735.26,438.97c13.91-13.48,32.74-20.25,56.52-20.25h105.46L887,463.74h-99.02
			c-20.99,0-34.02,10.94-39.07,32.81c-0.76,3.26-1.14,6.27-1.14,9.07c0,12.11,6.83,18.14,20.48,18.14h52.72
			c32.88,0,49.33,13.38,49.33,40.14c0,8.38-1.39,18.62-4.17,30.71c-6.33,25.13-15.57,43.51-27.71,55.15
			c-13.65,13.26-32.49,19.89-56.52,19.89H674.94l10.61-45.02H785.7c12.14,0,21.25-2.92,27.32-8.72c4.8-4.66,8.46-12.68,10.99-24.08
			c1.02-3.73,1.53-6.75,1.53-9.09c0-10.24-7.97-15.35-23.89-15.35h-47.43c-33.63,0-50.45-14.77-50.45-44.33
			c0-8.14,1.25-17.69,3.8-28.61C713.64,469.58,722.86,451.06,735.26,438.97L735.26,438.97z"/>
		<path class="st0" d="M923.03,522.39h-25.79l8.34-36.64h25.79l15.55-67.01h36.8l-15.16,67.01H1008l-8.34,36.64h-39.83l-17.08,74.34
			c-1.76,7.66-2.65,13.73-2.65,18.14c0,7.21,2.39,12.11,7.21,14.65c4.04,2.34,11.63,3.49,22.76,3.49h3.8l-8.34,36.64h-33.76
			c-21.5,0-32.25-11.75-32.25-35.25c0-6.51,0.88-13.84,2.66-21.98L923.03,522.39z"/>
		<path class="st0" d="M1045.56,669.66h-36.8l42.48-183.92h62.22c11.38,0,19.35,1.68,23.89,5.05c4.56,3.37,6.83,9.38,6.83,17.98
			c0,7.92-2.41,22.11-7.21,42.58l-2.66,11.16h-34.9l3.43-14.65c2.02-9.53,3.04-15.58,3.04-18.14c0-4.19-1.59-6.68-4.75-7.5
			c-3.17-0.81-10.31-1.22-21.43-1.22L1045.56,669.66z"/>
		<path class="st0" d="M1270.12,631.62l-8.73,38.04h-53.86c-36.17,0-54.25-18.6-54.25-55.84c0-10.7,1.51-22.79,4.54-36.29
			c6.32-26.52,16.31-47.7,29.98-63.52c16.43-18.86,37.17-28.27,62.2-28.27h53.87l-9.11,38.04h-48.55c-12.14,0-20.99,1.98-26.55,5.94
			c-6.83,4.88-12.28,14.55-16.31,28.96h83.45l-8.72,38.75h-83.46c-1.27,6.97-1.9,12.45-1.9,16.4c0,6.75,2.04,11.4,6.07,13.96
			c4.05,2.56,11.38,3.85,22.01,3.85h49.32V631.62z"/>
		<path class="st0" d="M1433.63,542.63c0-12.58-9.36-18.86-28.08-18.86h-61.83l8.72-38.04h75.87c30.1,0,45.14,13.84,45.14,41.53
			c0,7.9-1.14,16.99-3.41,27.22l-26.93,115.17h-99.01c-21.99,0-33-11.87-33-35.59c0-5.82,0.76-12.11,2.27-18.86
			c5.05-22.33,14.16-38.03,27.32-47.11c10.11-6.75,24.01-10.12,41.71-10.12h48.94C1432.86,551.93,1433.63,546.8,1433.63,542.63
			L1433.63,542.63z M1351.3,622.2c0,7.22,5.56,10.82,16.69,10.82h45.9l9.11-38.39h-43.63c-14.67,0-23.64,6.41-26.93,19.2
			C1351.67,617.08,1351.3,619.87,1351.3,622.2L1351.3,622.2z"/>
		<path class="st0" d="M1510.24,669.66h-36.8l42.49-183.92h141.49c30.84,0,46.28,13.14,46.28,39.43c0,7.92-1.14,17.23-3.41,27.93
			l-26.93,116.56h-37.19l25.81-110.27c1.76-7.92,2.65-13.97,2.65-18.16c0-10.46-6.33-15.7-18.96-15.7c-2.54,0-5.44,0.24-8.73,0.7
			h-6.83c-2.53,0-4.29,0.12-5.31,0.36l-33,143.08h-37.93l33-143.08h-43.63L1510.24,669.66z"/>
	</g>
	<path class="st0" d="M1406.94,388.02c0,37.03-30.03,67.07-67.07,67.07c-37.02,0-67.07-30.03-67.07-67.07
		c0-37.02,30.05-67.05,67.07-67.05C1376.9,320.97,1406.94,351,1406.94,388.02z"/>
	<path class="st1" d="M1390.45,366.96c0,23.69-19.23,42.9-42.9,42.9c-23.71,0-42.94-19.21-42.94-42.9
		c0-23.71,19.23-42.93,42.94-42.93C1371.22,324.03,1390.45,343.25,1390.45,366.96z"/>
	<path class="st2" d="M1371.29,345.39c0,7.56-6.14,13.67-13.7,13.67c-7.55,0-13.67-6.1-13.67-13.67c0-7.55,6.12-13.67,13.67-13.67
		C1365.15,331.72,1371.29,337.84,1371.29,345.39z"/>
	<path class="st3" d="M447.05,479.99c0,0,253.71-273.51,725.09-451.2c335.36-88.14,256.39,131.7,250.08,161.89
		c-12.97,62.27-51.35,112.56-51.35,112.56c22.69-102.02,94.35-263.92-126.48-240.93C946.5,113.57,447.05,479.99,447.05,479.99z"/>
</g>
</svg>
